<svg width="20" height="20" viewBox="0 0 20 20" fill="none" xmlns="http://www.w3.org/2000/svg">
<path d="M10 4.99996C10.9205 4.99996 11.6667 4.25377 11.6667 3.33329C11.6667 2.41282 10.9205 1.66663 10 1.66663C9.07952 1.66663 8.33333 2.41282 8.33333 3.33329C8.33333 4.25377 9.07952 4.99996 10 4.99996Z" fill="black"/>
<path d="M15.8333 10.8333V9.16668C14.55 9.18335 13.2583 8.54168 12.4417 7.64168L11.3667 6.45002C11.225 6.29168 11.05 6.16668 10.8583 6.07502C10.85 6.07502 10.85 6.06668 10.8417 6.06668H10.8333C10.5417 5.90002 10.2083 5.81668 9.84167 5.85002C8.96667 5.92502 8.33333 6.70002 8.33333 7.57502V12.5C8.33333 13.4167 9.08333 14.1667 10 14.1667H14.1667V18.3333H15.8333V13.75C15.8333 12.8333 15.0833 12.0833 14.1667 12.0833H11.6667V9.20835C12.7417 10.1 14.375 10.825 15.8333 10.8333ZM10.6917 15C10.35 15.9667 9.425 16.6667 8.33333 16.6667C6.95 16.6667 5.83333 15.55 5.83333 14.1667C5.83333 13.075 6.53333 12.1583 7.5 11.8083V10.0833C5.6 10.4667 4.16667 12.15 4.16667 14.1667C4.16667 16.4667 6.03333 18.3333 8.33333 18.3333C10.35 18.3333 12.0333 16.9 12.4167 15H10.6917Z" fill="black"/>
</svg>
