<svg width="28" height="28" viewBox="0 0 28 28" fill="none" xmlns="http://www.w3.org/2000/svg">
<path d="M9.33333 3.5C6.11217 3.5 3.5 6.11217 3.5 9.33333V18.6667C3.5 21.8878 6.11217 24.5 9.33333 24.5H18.6667C21.8878 24.5 24.5 21.8878 24.5 18.6667V9.33333C24.5 6.11217 21.8878 3.5 18.6667 3.5H9.33333ZM21 5.83333C21.644 5.83333 22.1667 6.356 22.1667 7C22.1667 7.644 21.644 8.16667 21 8.16667C20.356 8.16667 19.8333 7.644 19.8333 7C19.8333 6.356 20.356 5.83333 21 5.83333ZM14 8.16667C17.2212 8.16667 19.8333 10.7788 19.8333 14C19.8333 17.2212 17.2212 19.8333 14 19.8333C10.7788 19.8333 8.16667 17.2212 8.16667 14C8.16667 10.7788 10.7788 8.16667 14 8.16667ZM14 10.5C13.0717 10.5 12.1815 10.8687 11.5251 11.5251C10.8687 12.1815 10.5 13.0717 10.5 14C10.5 14.9283 10.8687 15.8185 11.5251 16.4749C12.1815 17.1313 13.0717 17.5 14 17.5C14.9283 17.5 15.8185 17.1313 16.4749 16.4749C17.1313 15.8185 17.5 14.9283 17.5 14C17.5 13.0717 17.1313 12.1815 16.4749 11.5251C15.8185 10.8687 14.9283 10.5 14 10.5Z" fill="black"/>
</svg>
